<svg width="18" height="19" viewBox="0 0 18 19" fill="none" xmlns="http://www.w3.org/2000/svg">
<path d="M6.75 15.1184C6.3634 15.1184 6.05 15.4318 6.05 15.8184C6.05 16.205 6.3634 16.5184 6.75 16.5184V15.1184ZM10.9688 16.5184C11.3553 16.5184 11.6687 16.205 11.6687 15.8184C11.6687 15.4318 11.3553 15.1184 10.9688 15.1184V16.5184ZM3.375 3.58086H14.625V2.18086H3.375V3.58086ZM15.05 4.00586V11.8809H16.45V4.00586H15.05ZM2.95 11.8809V4.00586H1.55V11.8809H2.95ZM14.625 12.3059H9V13.7059H14.625V12.3059ZM9 12.3059H3.375V13.7059H9V12.3059ZM9.7 15.8184V13.0059H8.3V15.8184H9.7ZM9 15.1184H6.75V16.5184H9V15.1184ZM9 16.5184H10.9688V15.1184H9V16.5184ZM1.55 11.8809C1.55 12.8888 2.36708 13.7059 3.375 13.7059V12.3059C3.14028 12.3059 2.95 12.1156 2.95 11.8809H1.55ZM15.05 11.8809C15.05 12.1156 14.8597 12.3059 14.625 12.3059V13.7059C15.6329 13.7059 16.45 12.8888 16.45 11.8809H15.05ZM14.625 3.58086C14.8597 3.58086 15.05 3.77114 15.05 4.00586H16.45C16.45 2.99794 15.6329 2.18086 14.625 2.18086V3.58086ZM3.375 2.18086C2.36708 2.18086 1.55 2.99794 1.55 4.00586H2.95C2.95 3.77114 3.14028 3.58086 3.375 3.58086V2.18086Z" fill="#1B1919"/>
</svg>
