<svg width="60" height="60" viewBox="0 0 60 60" fill="none" xmlns="http://www.w3.org/2000/svg">
<rect width="60" height="60" rx="8" fill="#FCE34C"/>
<path d="M11.058 50.3999H8V47.4449H11.058V34.8488H0V31.9431H11.058V30.1342H0V27.2285H11.058V12.955H8V10H11.058H22.1392V12.955H14.3085V27.2285H19.6467V30.1342H14.3085V31.9431H19.6467V34.8488H14.3085V47.4449H22.1392V50.3999H11.058Z" fill="#1B1919"/>
<path d="M23.4089 50.3999V10H29.3682C31.6008 10 33.2261 10.4925 34.2439 11.4775C35.2617 12.4625 35.8035 14.0877 35.8691 16.3532C35.9676 18.5531 36.0169 20.5887 36.0169 22.4602C36.0169 24.3317 35.9676 26.1704 35.8691 27.9762C35.7706 31.0954 34.7036 33.0325 32.6679 33.7877L36.6571 50.3999H33.1604L29.5652 34.3787H26.6594V50.3999H23.4089ZM26.6594 31.4237H29.3682C30.4845 31.4237 31.2889 31.161 31.7814 30.6357C32.3067 30.1104 32.5858 29.2731 32.6187 28.124C32.7828 24.1511 32.7828 20.1783 32.6187 16.2055C32.5858 15.0892 32.3067 14.2683 31.7814 13.743C31.2889 13.2177 30.4845 12.955 29.3682 12.955H26.6594V31.4237Z" fill="#1B1919"/>
<path d="M36.5463 50.3999L40.7818 10H46.8888L51.075 50.3999H47.7261L46.6918 37.9739H40.9296L39.8953 50.3999H36.5463ZM41.2251 35.0189H46.3963L45.6083 26.4002L44.5248 12.955H43.1458L42.0131 26.4495L41.2251 35.0189Z" fill="#1B1919"/>
</svg>
