<svg width="38" height="46" viewBox="0 0 38 46" fill="none" xmlns="http://www.w3.org/2000/svg">
<path d="M31.8351 24.3327C31.7677 20.5682 33.4521 17.6592 36.8883 15.6058C35.0018 12.8679 32.1383 11.3279 28.2979 10.9857C27.2872 10.9172 26.1418 11.0541 24.8617 11.3963C24.1206 11.6017 23.1099 11.9439 21.8298 12.423C20.5496 12.9022 19.7074 13.1417 19.3032 13.1417C18.8989 13.1417 17.9894 12.8679 16.5745 12.3204C14.3511 11.499 12.7004 11.0883 11.6223 11.0883C9.66844 11.1568 7.78192 11.7044 5.96277 12.731C4.21099 13.7577 2.7961 15.2636 1.71809 17.2485C0.572695 19.3704 0 21.9029 0 24.8461C0 27.5155 0.471631 30.2876 1.41489 33.1623C1.9539 34.6682 2.72872 36.3451 3.73936 38.1931C5.0195 40.4519 6.29965 42.2315 7.57979 43.532C9.26418 45.2431 10.8475 46.0645 12.3298 45.9961C13.0709 45.9961 14.1489 45.7223 15.5638 45.1747C17.3156 44.4902 18.7642 44.148 19.9096 44.148C21.055 44.148 22.4362 44.456 24.0532 45.072C25.5355 45.688 26.7482 45.9961 27.6915 45.9961C29.8475 45.9276 32.0372 44.3533 34.2606 41.2732C35.945 38.8776 37.1915 36.3793 38 33.7784C35.305 32.4779 33.4858 30.5614 32.5426 28.0288C32.0035 26.7968 31.7677 25.5648 31.8351 24.3327ZM26.0745 7.39222C27.8936 5.20193 28.7021 2.73786 28.5 0C27.2872 0.0684465 26.0408 0.444902 24.7606 1.12937C23.4805 1.81383 22.4362 2.63519 21.6277 3.59344C19.6738 5.78373 18.8316 8.2478 19.1011 10.9857C21.594 11.191 23.9184 10.0274 26.0745 7.49489V7.39222Z" fill="#F9F9F9"/>
</svg>
