<svg width="500" height="500" viewBox="0 0 500 500" fill="none" xmlns="http://www.w3.org/2000/svg">
<rect width="500" height="500" rx="250" fill="white"/>
<path d="M210.5 276.5L138.5 338.5" stroke="#1B5CF5" stroke-width="0.4"/>
<path d="M290 276.5L355 332" stroke="#1B5CF5" stroke-width="0.4"/>
<path d="M250 199L250 129" stroke="#1B5CF5" stroke-width="0.4"/>
<path d="M203.993 94.4999C179.174 101.612 156.7 114.273 138 131.055M296.5 94.3555C321.299 101.377 343.772 113.934 362.5 130.608M93.7727 194.5C86.1752 213.69 82 234.607 82 256.5C82 281.67 87.519 305.552 97.4128 327M407.028 194C414.752 213.326 419 234.417 419 256.5C419 278.583 414.752 299.674 407.028 319M350.5 392.132C332.558 405.382 311.894 415.157 289.5 420.464M210.5 420.224C185.09 414.037 161.936 402.09 142.5 385.843" stroke="#1B5CF5" stroke-width="0.4"/>
<rect x="224" y="222" width="52" height="52" rx="26" fill="#FCE34C"/>
<rect x="240.448" y="233.791" width="19.3446" height="28.6587" rx="2.86587" stroke="white"/>
<circle cx="250.25" cy="259.25" r="1.25" fill="white"/>
<rect x="369.775" y="136.775" width="42.449" height="42.449" rx="21.2245" fill="#FCE34C"/>
<rect x="383.203" y="146.401" width="15.7915" height="23.3948" rx="2.33948" stroke="white"/>
<circle cx="391.2" cy="165.2" r="1.2" fill="white"/>
<rect x="228.775" y="403.775" width="42.449" height="42.449" rx="21.2245" fill="#FCE34C"/>
<rect x="242.203" y="413.401" width="15.7915" height="23.3948" rx="2.33948" stroke="white"/>
<circle cx="250.2" cy="432.2" r="1.2" fill="white"/>
<rect x="87.7754" y="136.775" width="42.449" height="42.449" rx="21.2245" fill="#FCE34C"/>
<rect x="101.203" y="146.401" width="15.7915" height="23.3948" rx="2.33948" stroke="white"/>
<circle cx="109.2" cy="165.2" r="1.2" fill="white"/>
<rect x="87.7754" y="343.775" width="42.449" height="42.449" rx="21.2245" fill="#FCE34C"/>
<rect x="365" y="339" width="52" height="52" rx="26" fill="#FCE34C"/>
<rect x="381.448" y="350.791" width="19.3446" height="28.6587" rx="2.86587" stroke="white"/>
<circle cx="391.25" cy="376.25" r="1.25" fill="white"/>
<rect x="224" y="54" width="52" height="52" rx="26" fill="#FCE34C"/>
<path d="M246 91.5C245.724 91.5 245.5 91.7239 245.5 92C245.5 92.2761 245.724 92.5 246 92.5V91.5ZM253.5 92.5C253.776 92.5 254 92.2761 254 92C254 91.7239 253.776 91.5 253.5 91.5V92.5ZM240 69.5H260V68.5H240V69.5ZM261.5 71V85H262.5V71H261.5ZM238.5 85V71H237.5V85H238.5ZM260 86.5H250V87.5H260V86.5ZM250 86.5H240V87.5H250V86.5ZM250.5 92V87H249.5V92H250.5ZM250 91.5H246V92.5H250V91.5ZM250 92.5H253.5V91.5H250V92.5ZM237.5 85C237.5 86.3807 238.619 87.5 240 87.5V86.5C239.172 86.5 238.5 85.8284 238.5 85H237.5ZM261.5 85C261.5 85.8284 260.828 86.5 260 86.5V87.5C261.381 87.5 262.5 86.3807 262.5 85H261.5ZM260 69.5C260.828 69.5 261.5 70.1716 261.5 71H262.5C262.5 69.6193 261.381 68.5 260 68.5V69.5ZM240 68.5C238.619 68.5 237.5 69.6193 237.5 71H238.5C238.5 70.1716 239.172 69.5 240 69.5V68.5Z" fill="white"/>
<path d="M105.75 374.25C105.474 374.25 105.25 374.474 105.25 374.75C105.25 375.026 105.474 375.25 105.75 375.25V374.25ZM111.844 375.25C112.12 375.25 112.344 375.026 112.344 374.75C112.344 374.474 112.12 374.25 111.844 374.25V375.25ZM100.875 356.562H117.125V355.562H100.875V356.562ZM118.25 357.688V369.062H119.25V357.688H118.25ZM99.75 369.062V357.687H98.75V369.062H99.75ZM117.125 370.188H109V371.188H117.125V370.188ZM109 370.188H100.875V371.188H109V370.188ZM109.5 374.75V370.688H108.5V374.75H109.5ZM109 374.25H105.75V375.25H109V374.25ZM109 375.25H111.844V374.25H109V375.25ZM98.75 369.062C98.75 370.236 99.7014 371.188 100.875 371.188V370.188C100.254 370.188 99.75 369.684 99.75 369.062H98.75ZM118.25 369.062C118.25 369.684 117.746 370.188 117.125 370.188V371.188C118.299 371.188 119.25 370.236 119.25 369.062H118.25ZM117.125 356.562C117.746 356.562 118.25 357.066 118.25 357.688H119.25C119.25 356.514 118.299 355.562 117.125 355.562V356.562ZM100.875 355.562C99.7014 355.562 98.75 356.514 98.75 357.687H99.75C99.75 357.066 100.254 356.562 100.875 356.562V355.562Z" fill="white"/>
<path d="M231.048 276.4L228.624 282H227.344L224.928 276.4H226.328L228.032 280.4L229.76 276.4H231.048ZM235.016 280.8H232.416L231.92 282H230.592L233.088 276.4H234.368L236.872 282H235.512L235.016 280.8ZM234.608 279.816L233.72 277.672L232.832 279.816H234.608ZM237.453 276.4H238.749V280.944H241.557V282H237.453V276.4ZM242.281 276.4H243.577V282H242.281V276.4ZM244.906 276.4H247.45C248.058 276.4 248.594 276.517 249.058 276.752C249.528 276.981 249.89 277.307 250.146 277.728C250.408 278.149 250.538 278.64 250.538 279.2C250.538 279.76 250.408 280.251 250.146 280.672C249.89 281.093 249.528 281.421 249.058 281.656C248.594 281.885 248.058 282 247.45 282H244.906V276.4ZM247.386 280.936C247.946 280.936 248.392 280.781 248.722 280.472C249.058 280.157 249.226 279.733 249.226 279.2C249.226 278.667 249.058 278.245 248.722 277.936C248.392 277.621 247.946 277.464 247.386 277.464H246.202V280.936H247.386ZM255.125 280.8H252.525L252.029 282H250.701L253.197 276.4H254.477L256.981 282H255.621L255.125 280.8ZM254.717 279.816L253.829 277.672L252.941 279.816H254.717ZM258.441 277.456H256.649V276.4H261.529V277.456H259.737V282H258.441V277.456ZM264.86 282.096C264.279 282.096 263.754 281.971 263.284 281.72C262.82 281.469 262.455 281.125 262.188 280.688C261.927 280.245 261.796 279.749 261.796 279.2C261.796 278.651 261.927 278.157 262.188 277.72C262.455 277.277 262.82 276.931 263.284 276.68C263.754 276.429 264.279 276.304 264.86 276.304C265.442 276.304 265.964 276.429 266.428 276.68C266.892 276.931 267.258 277.277 267.524 277.72C267.791 278.157 267.924 278.651 267.924 279.2C267.924 279.749 267.791 280.245 267.524 280.688C267.258 281.125 266.892 281.469 266.428 281.72C265.964 281.971 265.442 282.096 264.86 282.096ZM264.86 280.992C265.191 280.992 265.49 280.917 265.756 280.768C266.023 280.613 266.231 280.4 266.38 280.128C266.535 279.856 266.612 279.547 266.612 279.2C266.612 278.853 266.535 278.544 266.38 278.272C266.231 278 266.023 277.789 265.756 277.64C265.49 277.485 265.191 277.408 264.86 277.408C264.53 277.408 264.231 277.485 263.964 277.64C263.698 277.789 263.487 278 263.332 278.272C263.183 278.544 263.108 278.853 263.108 279.2C263.108 279.547 263.183 279.856 263.332 280.128C263.487 280.4 263.698 280.613 263.964 280.768C264.231 280.917 264.53 280.992 264.86 280.992ZM272.466 282L271.386 280.44H271.322H270.194V282H268.898V276.4H271.322C271.818 276.4 272.248 276.483 272.61 276.648C272.978 276.813 273.261 277.048 273.458 277.352C273.656 277.656 273.754 278.016 273.754 278.432C273.754 278.848 273.653 279.208 273.45 279.512C273.253 279.811 272.97 280.04 272.602 280.2L273.858 282H272.466ZM272.442 278.432C272.442 278.117 272.341 277.877 272.138 277.712C271.936 277.541 271.64 277.456 271.25 277.456H270.194V279.408H271.25C271.64 279.408 271.936 279.323 272.138 279.152C272.341 278.981 272.442 278.741 272.442 278.432Z" fill="#1B1919"/>
<path d="M372.048 393.4L369.624 399H368.344L365.928 393.4H367.328L369.032 397.4L370.76 393.4H372.048ZM376.016 397.8H373.416L372.92 399H371.592L374.088 393.4H375.368L377.872 399H376.512L376.016 397.8ZM375.608 396.816L374.72 394.672L373.832 396.816H375.608ZM378.453 393.4H379.749V397.944H382.557V399H378.453V393.4ZM383.281 393.4H384.577V399H383.281V393.4ZM385.906 393.4H388.45C389.058 393.4 389.594 393.517 390.058 393.752C390.528 393.981 390.89 394.307 391.146 394.728C391.408 395.149 391.538 395.64 391.538 396.2C391.538 396.76 391.408 397.251 391.146 397.672C390.89 398.093 390.528 398.421 390.058 398.656C389.594 398.885 389.058 399 388.45 399H385.906V393.4ZM388.386 397.936C388.946 397.936 389.392 397.781 389.722 397.472C390.058 397.157 390.226 396.733 390.226 396.2C390.226 395.667 390.058 395.245 389.722 394.936C389.392 394.621 388.946 394.464 388.386 394.464H387.202V397.936H388.386ZM396.125 397.8H393.525L393.029 399H391.701L394.197 393.4H395.477L397.981 399H396.621L396.125 397.8ZM395.717 396.816L394.829 394.672L393.941 396.816H395.717ZM399.441 394.456H397.649V393.4H402.529V394.456H400.737V399H399.441V394.456ZM405.86 399.096C405.279 399.096 404.754 398.971 404.284 398.72C403.82 398.469 403.455 398.125 403.188 397.688C402.927 397.245 402.796 396.749 402.796 396.2C402.796 395.651 402.927 395.157 403.188 394.72C403.455 394.277 403.82 393.931 404.284 393.68C404.754 393.429 405.279 393.304 405.86 393.304C406.442 393.304 406.964 393.429 407.428 393.68C407.892 393.931 408.258 394.277 408.524 394.72C408.791 395.157 408.924 395.651 408.924 396.2C408.924 396.749 408.791 397.245 408.524 397.688C408.258 398.125 407.892 398.469 407.428 398.72C406.964 398.971 406.442 399.096 405.86 399.096ZM405.86 397.992C406.191 397.992 406.49 397.917 406.756 397.768C407.023 397.613 407.231 397.4 407.38 397.128C407.535 396.856 407.612 396.547 407.612 396.2C407.612 395.853 407.535 395.544 407.38 395.272C407.231 395 407.023 394.789 406.756 394.64C406.49 394.485 406.191 394.408 405.86 394.408C405.53 394.408 405.231 394.485 404.964 394.64C404.698 394.789 404.487 395 404.332 395.272C404.183 395.544 404.108 395.853 404.108 396.2C404.108 396.547 404.183 396.856 404.332 397.128C404.487 397.4 404.698 397.613 404.964 397.768C405.231 397.917 405.53 397.992 405.86 397.992ZM413.466 399L412.386 397.44H412.322H411.194V399H409.898V393.4H412.322C412.818 393.4 413.248 393.483 413.61 393.648C413.978 393.813 414.261 394.048 414.458 394.352C414.656 394.656 414.754 395.016 414.754 395.432C414.754 395.848 414.653 396.208 414.45 396.512C414.253 396.811 413.97 397.04 413.602 397.2L414.858 399H413.466ZM413.442 395.432C413.442 395.117 413.341 394.877 413.138 394.712C412.936 394.541 412.64 394.456 412.25 394.456H411.194V396.408H412.25C412.64 396.408 412.936 396.323 413.138 396.152C413.341 395.981 413.442 395.741 413.442 395.432Z" fill="#1B1919"/>
<path d="M231.048 108.4L228.624 114H227.344L224.928 108.4H226.328L228.032 112.4L229.76 108.4H231.048ZM235.016 112.8H232.416L231.92 114H230.592L233.088 108.4H234.368L236.872 114H235.512L235.016 112.8ZM234.608 111.816L233.72 109.672L232.832 111.816H234.608ZM237.453 108.4H238.749V112.944H241.557V114H237.453V108.4ZM242.281 108.4H243.577V114H242.281V108.4ZM244.906 108.4H247.45C248.058 108.4 248.594 108.517 249.058 108.752C249.528 108.981 249.89 109.307 250.146 109.728C250.408 110.149 250.538 110.64 250.538 111.2C250.538 111.76 250.408 112.251 250.146 112.672C249.89 113.093 249.528 113.421 249.058 113.656C248.594 113.885 248.058 114 247.45 114H244.906V108.4ZM247.386 112.936C247.946 112.936 248.392 112.781 248.722 112.472C249.058 112.157 249.226 111.733 249.226 111.2C249.226 110.667 249.058 110.245 248.722 109.936C248.392 109.621 247.946 109.464 247.386 109.464H246.202V112.936H247.386ZM255.125 112.8H252.525L252.029 114H250.701L253.197 108.4H254.477L256.981 114H255.621L255.125 112.8ZM254.717 111.816L253.829 109.672L252.941 111.816H254.717ZM258.441 109.456H256.649V108.4H261.529V109.456H259.737V114H258.441V109.456ZM264.86 114.096C264.279 114.096 263.754 113.971 263.284 113.72C262.82 113.469 262.455 113.125 262.188 112.688C261.927 112.245 261.796 111.749 261.796 111.2C261.796 110.651 261.927 110.157 262.188 109.72C262.455 109.277 262.82 108.931 263.284 108.68C263.754 108.429 264.279 108.304 264.86 108.304C265.442 108.304 265.964 108.429 266.428 108.68C266.892 108.931 267.258 109.277 267.524 109.72C267.791 110.157 267.924 110.651 267.924 111.2C267.924 111.749 267.791 112.245 267.524 112.688C267.258 113.125 266.892 113.469 266.428 113.72C265.964 113.971 265.442 114.096 264.86 114.096ZM264.86 112.992C265.191 112.992 265.49 112.917 265.756 112.768C266.023 112.613 266.231 112.4 266.38 112.128C266.535 111.856 266.612 111.547 266.612 111.2C266.612 110.853 266.535 110.544 266.38 110.272C266.231 110 266.023 109.789 265.756 109.64C265.49 109.485 265.191 109.408 264.86 109.408C264.53 109.408 264.231 109.485 263.964 109.64C263.698 109.789 263.487 110 263.332 110.272C263.183 110.544 263.108 110.853 263.108 111.2C263.108 111.547 263.183 111.856 263.332 112.128C263.487 112.4 263.698 112.613 263.964 112.768C264.231 112.917 264.53 112.992 264.86 112.992ZM272.466 114L271.386 112.44H271.322H270.194V114H268.898V108.4H271.322C271.818 108.4 272.248 108.483 272.61 108.648C272.978 108.813 273.261 109.048 273.458 109.352C273.656 109.656 273.754 110.016 273.754 110.432C273.754 110.848 273.653 111.208 273.45 111.512C273.253 111.811 272.97 112.04 272.602 112.2L273.858 114H272.466ZM272.442 110.432C272.442 110.117 272.341 109.877 272.138 109.712C271.936 109.541 271.64 109.456 271.25 109.456H270.194V111.408H271.25C271.64 111.408 271.936 111.323 272.138 111.152C272.341 110.981 272.442 110.741 272.442 110.432Z" fill="#1B1919"/>
<circle cx="250" cy="248" r="48.8" stroke="#1B5CF5" stroke-width="0.4"/>
<circle cx="391" cy="158" r="39.8" stroke="#1B5CF5" stroke-width="0.4"/>
<circle cx="250" cy="425" r="39.8" stroke="#1B5CF5" stroke-width="0.4"/>
<circle cx="109" cy="158" r="39.8" stroke="#1B5CF5" stroke-width="0.4"/>
<circle cx="109" cy="365" r="39.8" stroke="#1B5CF5" stroke-width="0.4"/>
<circle cx="391" cy="365" r="48.8" stroke="#1B5CF5" stroke-width="0.4"/>
<circle cx="250" cy="80" r="48.8" stroke="#1B5CF5" stroke-width="0.4"/>
<path d="M211.013 275.142C210.539 274.462 209.604 274.296 208.925 274.77C208.245 275.244 208.078 276.179 208.552 276.858L211.013 275.142ZM291.447 276.858C291.921 276.179 291.755 275.244 291.075 274.77C290.396 274.296 289.461 274.462 288.987 275.142L291.447 276.858ZM250 295.5C233.86 295.5 219.599 287.451 211.013 275.142L208.552 276.858C217.676 289.937 232.838 298.5 250 298.5V295.5ZM288.987 275.142C280.401 287.451 266.14 295.5 250 295.5V298.5C267.162 298.5 282.324 289.937 291.447 276.858L288.987 275.142Z" fill="#FCE34C"/>
<path d="M352.013 392.142C351.539 391.462 350.604 391.296 349.925 391.77C349.245 392.244 349.078 393.179 349.552 393.858L352.013 392.142ZM432.447 393.858C432.921 393.179 432.755 392.244 432.075 391.77C431.396 391.296 430.461 391.462 429.987 392.142L432.447 393.858ZM391 412.5C374.86 412.5 360.599 404.451 352.013 392.142L349.552 393.858C358.676 406.937 373.838 415.5 391 415.5V412.5ZM429.987 392.142C421.401 404.451 407.14 412.5 391 412.5V415.5C408.162 415.5 423.324 406.937 432.447 393.858L429.987 392.142Z" fill="#FCE34C"/>
<path d="M211.013 107.142C210.539 106.462 209.604 106.296 208.925 106.77C208.245 107.244 208.078 108.179 208.552 108.858L211.013 107.142ZM291.447 108.858C291.921 108.179 291.755 107.244 291.075 106.77C290.396 106.296 289.461 106.462 288.987 107.142L291.447 108.858ZM250 127.5C233.86 127.5 219.599 119.451 211.013 107.142L208.552 108.858C217.676 121.937 232.838 130.5 250 130.5V127.5ZM288.987 107.142C280.401 119.451 266.14 127.5 250 127.5V130.5C267.162 130.5 282.324 121.937 291.447 108.858L288.987 107.142Z" fill="#FCE34C"/>
<g filter="url(#filter0_d)">
<circle cx="86" cy="347" r="9" fill="white"/>
</g>
<g filter="url(#filter1_d)">
<circle cx="86" cy="140" r="9" fill="white"/>
</g>
<g filter="url(#filter2_d)">
<circle cx="227" cy="406" r="9" fill="white"/>
</g>
<path fill-rule="evenodd" clip-rule="evenodd" d="M82.689 138.29C81.2663 138.484 80.1667 139.691 80.1667 141.167C80.1667 142.777 81.4728 144.083 83.0833 144.083H89.5C90.7886 144.083 91.8333 143.038 91.8333 141.75C91.8333 140.461 90.7886 139.417 89.5 139.417C89.5 137.483 87.9332 135.917 86 135.917C84.4618 135.917 83.1586 136.91 82.689 138.29Z" stroke="#1B5CF5" stroke-width="0.875" stroke-linecap="round" stroke-linejoin="round"/>
<path fill-rule="evenodd" clip-rule="evenodd" d="M223.689 404.29C222.266 404.484 221.167 405.691 221.167 407.167C221.167 408.777 222.473 410.083 224.083 410.083H230.5C231.789 410.083 232.833 409.038 232.833 407.75C232.833 406.461 231.789 405.417 230.5 405.417C230.5 403.483 228.933 401.917 227 401.917C225.462 401.917 224.159 402.91 223.689 404.29Z" stroke="#1B5CF5" stroke-width="0.875" stroke-linecap="round" stroke-linejoin="round"/>
<g filter="url(#filter3_d)">
<circle cx="369" cy="140" r="9" fill="white"/>
</g>
<path fill-rule="evenodd" clip-rule="evenodd" d="M81.0417 346.281C81.0417 348.862 82.6442 351.173 85.0622 352.077L85.0797 352.084C85.6733 352.306 86.3271 352.305 86.9205 352.083L86.9347 352.078C89.3549 351.171 90.9583 348.857 90.9583 346.273V344.101C90.9583 343.591 90.6266 343.14 90.1395 342.987L86.3478 341.803C86.1213 341.732 85.8787 341.732 85.6522 341.803L81.8605 342.987C81.3734 343.139 81.0417 343.591 81.0417 344.101V346.281Z" stroke="#1B5CF5" stroke-width="0.875" stroke-linecap="round" stroke-linejoin="round"/>
<path fill-rule="evenodd" clip-rule="evenodd" d="M364.042 139.281C364.042 141.862 365.644 144.173 368.062 145.077L368.08 145.084C368.673 145.306 369.327 145.305 369.92 145.083L369.935 145.078C372.355 144.171 373.958 141.857 373.958 139.273V137.101C373.958 136.591 373.627 136.14 373.139 135.987L369.348 134.803C369.121 134.732 368.879 134.732 368.652 134.803L364.861 135.987C364.373 136.139 364.042 136.591 364.042 137.101V139.281Z" stroke="#1B5CF5" stroke-width="0.875" stroke-linecap="round" stroke-linejoin="round"/>
<defs>
<filter id="filter0_d" x="73" y="336" width="26" height="26" filterUnits="userSpaceOnUse" color-interpolation-filters="sRGB">
<feFlood flood-opacity="0" result="BackgroundImageFix"/>
<feColorMatrix in="SourceAlpha" type="matrix" values="0 0 0 0 0 0 0 0 0 0 0 0 0 0 0 0 0 0 127 0"/>
<feOffset dy="2"/>
<feGaussianBlur stdDeviation="2"/>
<feColorMatrix type="matrix" values="0 0 0 0 0 0 0 0 0 0 0 0 0 0 0 0 0 0 0.15 0"/>
<feBlend mode="normal" in2="BackgroundImageFix" result="effect1_dropShadow"/>
<feBlend mode="normal" in="SourceGraphic" in2="effect1_dropShadow" result="shape"/>
</filter>
<filter id="filter1_d" x="73" y="129" width="26" height="26" filterUnits="userSpaceOnUse" color-interpolation-filters="sRGB">
<feFlood flood-opacity="0" result="BackgroundImageFix"/>
<feColorMatrix in="SourceAlpha" type="matrix" values="0 0 0 0 0 0 0 0 0 0 0 0 0 0 0 0 0 0 127 0"/>
<feOffset dy="2"/>
<feGaussianBlur stdDeviation="2"/>
<feColorMatrix type="matrix" values="0 0 0 0 0 0 0 0 0 0 0 0 0 0 0 0 0 0 0.15 0"/>
<feBlend mode="normal" in2="BackgroundImageFix" result="effect1_dropShadow"/>
<feBlend mode="normal" in="SourceGraphic" in2="effect1_dropShadow" result="shape"/>
</filter>
<filter id="filter2_d" x="214" y="395" width="26" height="26" filterUnits="userSpaceOnUse" color-interpolation-filters="sRGB">
<feFlood flood-opacity="0" result="BackgroundImageFix"/>
<feColorMatrix in="SourceAlpha" type="matrix" values="0 0 0 0 0 0 0 0 0 0 0 0 0 0 0 0 0 0 127 0"/>
<feOffset dy="2"/>
<feGaussianBlur stdDeviation="2"/>
<feColorMatrix type="matrix" values="0 0 0 0 0 0 0 0 0 0 0 0 0 0 0 0 0 0 0.15 0"/>
<feBlend mode="normal" in2="BackgroundImageFix" result="effect1_dropShadow"/>
<feBlend mode="normal" in="SourceGraphic" in2="effect1_dropShadow" result="shape"/>
</filter>
<filter id="filter3_d" x="356" y="129" width="26" height="26" filterUnits="userSpaceOnUse" color-interpolation-filters="sRGB">
<feFlood flood-opacity="0" result="BackgroundImageFix"/>
<feColorMatrix in="SourceAlpha" type="matrix" values="0 0 0 0 0 0 0 0 0 0 0 0 0 0 0 0 0 0 127 0"/>
<feOffset dy="2"/>
<feGaussianBlur stdDeviation="2"/>
<feColorMatrix type="matrix" values="0 0 0 0 0 0 0 0 0 0 0 0 0 0 0 0 0 0 0.15 0"/>
<feBlend mode="normal" in2="BackgroundImageFix" result="effect1_dropShadow"/>
<feBlend mode="normal" in="SourceGraphic" in2="effect1_dropShadow" result="shape"/>
</filter>
</defs>
</svg>
